<?xml version="1.0" standalone="no"?>
<!DOCTYPE svg PUBLIC "-//W3C//DTD SVG 20010904//EN"
 "http://www.w3.org/TR/2001/REC-SVG-20010904/DTD/svg10.dtd">
<svg version="1.0" xmlns="http://www.w3.org/2000/svg"
 width="511.000000pt" height="511.000000pt" viewBox="0 0 511.000000 511.000000"
 preserveAspectRatio="xMidYMid meet">
<metadata>
Created by potrace 1.14, written by Peter Selinger 2001-2017
</metadata>
<g transform="translate(0.000000,511.000000) scale(0.100000,-0.100000)"
fill="#000000" stroke="none">
<path d="M2452 4714 c-18 -7 -34 -12 -35 -11 -2 1 -11 -5 -19 -14 -9 -9 -40
-31 -70 -50 -29 -18 -54 -37 -56 -41 -2 -5 -8 -8 -14 -8 -5 0 -24 -10 -41 -23
-64 -47 -94 -50 -212 -27 -33 6 -71 13 -85 15 -14 2 -27 4 -30 5 -3 1 -13 2
-22 1 -10 -1 -18 2 -18 7 0 5 -13 8 -30 7 -17 -1 -30 2 -30 9 0 6 -5 4 -10 -4
-6 -9 -10 -10 -10 -3 0 9 -9 8 -35 -3 -19 -8 -35 -12 -35 -9 0 7 -21 -10 -53
-42 -33 -33 -60 -72 -77 -110 -5 -13 -14 -23 -20 -23 -5 0 -10 -4 -10 -10 0
-9 -54 -93 -75 -115 -15 -17 -66 -49 -84 -53 -9 -2 -25 -5 -36 -7 -11 -2 -21
-4 -22 -5 -2 -2 -12 -4 -23 -5 -11 -1 -21 -4 -22 -5 -2 -1 -16 -4 -33 -5 -16
-2 -30 -4 -30 -5 0 -2 -19 -6 -70 -14 -63 -10 -122 -44 -146 -83 -12 -20 -22
-42 -22 -49 0 -8 -4 -14 -8 -14 -4 0 -6 -8 -4 -17 1 -10 0 -22 -3 -28 -4 -5
-8 -19 -9 -30 -1 -11 -4 -34 -6 -51 -2 -17 -7 -35 -10 -41 -3 -5 -7 -26 -9
-46 -1 -21 -6 -37 -11 -37 -4 0 -6 -4 -2 -9 6 -11 -14 -60 -35 -82 -25 -27
-124 -96 -148 -103 -12 -4 -20 -11 -18 -15 3 -4 -8 -12 -23 -19 -15 -7 -37
-21 -49 -32 -12 -11 -24 -20 -27 -20 -16 0 -55 -57 -62 -90 -6 -23 -4 -100 2
-109 7 -12 19 -80 19 -113 1 -16 3 -28 6 -28 3 0 7 -14 8 -32 2 -17 6 -36 10
-42 13 -18 5 -94 -12 -121 -9 -14 -13 -25 -9 -25 5 0 3 -4 -3 -8 -5 -4 -20
-24 -33 -45 -13 -21 -30 -44 -38 -52 -8 -8 -11 -15 -6 -15 4 0 3 -4 -3 -8 -25
-17 -98 -146 -101 -178 -4 -40 30 -123 67 -164 12 -14 29 -38 37 -55 9 -16 22
-34 29 -38 8 -4 14 -12 14 -17 0 -5 14 -31 31 -58 31 -50 41 -110 26 -157 -3
-11 -9 -36 -12 -55 -3 -19 -8 -42 -11 -51 -2 -10 -7 -30 -9 -45 -2 -16 -7 -40
-10 -54 -17 -73 -2 -144 40 -185 27 -28 141 -105 154 -105 6 0 11 -5 11 -11 0
-5 5 -7 10 -4 6 3 13 -1 16 -9 3 -8 15 -18 26 -22 45 -14 104 -98 114 -164 2
-14 7 -36 10 -50 5 -23 14 -73 18 -110 1 -9 5 -21 10 -28 4 -6 5 -12 2 -12 -3
0 1 -18 9 -40 8 -22 12 -40 10 -40 -2 0 6 -11 18 -23 32 -34 76 -61 106 -65
14 -1 33 -5 41 -8 8 -4 29 -8 45 -10 17 -2 37 -5 45 -7 8 -2 38 -8 65 -12 28
-5 52 -10 55 -10 44 -12 60 -19 60 -26 0 -5 4 -8 8 -6 9 3 62 -49 62 -61 0 -5
9 -17 20 -27 11 -10 17 -21 15 -25 -3 -4 2 -11 10 -14 8 -3 14 -9 13 -13 -3
-9 62 -106 74 -111 4 -2 8 -9 8 -15 0 -12 48 -55 63 -56 4 0 20 -7 36 -15 16
-9 30 -14 32 -12 2 2 20 6 39 9 82 13 108 18 154 29 28 6 59 12 70 13 12 1 22
4 24 5 11 11 94 3 127 -13 39 -20 126 -74 156 -99 15 -12 33 -23 82 -50 12 -7
25 -17 28 -21 3 -5 27 -10 54 -11 51 -4 122 18 142 44 7 8 13 11 13 6 0 -5 9
1 20 14 11 13 20 20 20 16 0 -8 71 43 82 59 4 5 8 6 8 1 0 -5 8 -2 18 6 49 44
118 59 202 43 19 -3 44 -7 55 -9 11 -2 29 -6 40 -9 23 -7 93 -19 115 -20 8 0
18 -5 22 -11 5 -8 8 -7 8 2 0 10 5 10 20 2 14 -8 20 -8 20 0 0 6 4 9 8 6 20
-12 122 58 122 83 0 6 8 14 18 20 9 5 16 12 15 15 -3 9 31 66 40 66 4 0 7 5 7
10 0 12 40 71 55 82 6 4 6 8 2 8 -12 0 47 54 74 67 35 16 54 22 102 28 50 7
82 13 82 15 0 1 9 3 20 4 134 19 205 58 221 123 4 13 9 23 13 23 4 0 6 12 6
28 -1 15 1 32 4 37 3 6 6 18 7 28 1 9 2 18 4 20 1 1 3 11 5 22 2 11 7 36 10
55 6 31 11 58 18 94 1 6 4 13 7 16 3 3 13 19 22 35 9 17 25 35 35 40 10 6 25
18 34 27 9 10 19 15 22 11 4 -3 9 2 13 11 3 9 9 14 13 12 4 -3 20 6 36 20 27
23 39 28 58 25 5 -1 6 3 2 8 -3 6 9 18 27 27 45 23 98 84 99 114 5 77 -4 135
-47 305 -15 62 10 185 38 185 5 0 7 4 4 8 -3 5 6 21 20 37 13 15 24 31 24 35
0 4 9 17 20 30 11 13 20 29 20 36 0 7 6 17 13 21 32 21 73 143 54 162 -6 6 -8
11 -4 11 7 0 -30 81 -42 90 -8 6 -29 40 -38 60 -3 8 -12 19 -20 23 -7 4 -13
15 -13 22 0 8 -4 15 -8 15 -11 0 -43 56 -35 64 3 3 1 6 -6 6 -6 0 -16 12 -21
26 -12 31 -20 124 -10 124 4 0 7 6 8 13 5 58 15 114 21 122 4 6 7 22 6 38 0
15 2 27 6 27 3 0 5 10 5 23 -1 12 1 30 6 39 4 9 4 19 -1 23 -6 3 -8 14 -6 25
2 11 -1 22 -6 25 -5 4 -7 11 -4 16 4 5 1 9 -4 9 -6 0 -11 5 -11 11 0 14 -45
55 -82 75 -16 8 -28 19 -28 25 0 6 -4 7 -10 4 -5 -3 -10 -1 -10 4 0 6 -5 11
-10 11 -12 0 -71 40 -82 55 -5 7 -8 7 -8 0 0 -5 -5 -2 -11 8 -5 9 -15 17 -20
17 -13 0 -30 17 -54 54 -21 31 -28 55 -29 99 -1 15 -4 27 -7 27 -4 0 -9 15
-12 33 -3 17 -8 48 -11 67 -4 19 -9 48 -11 64 -12 86 -82 158 -166 169 -19 3
-34 6 -34 7 0 1 -9 3 -20 5 -11 1 -36 6 -55 10 -19 4 -44 8 -55 9 -34 4 -109
27 -122 38 -7 6 -13 7 -13 3 0 -10 -58 57 -59 68 0 4 -5 13 -11 20 -47 55 -60
74 -60 85 0 6 -4 12 -10 12 -5 0 -10 7 -10 15 0 8 -4 15 -10 15 -5 0 -10 4
-10 10 0 9 -7 19 -50 69 -20 23 -78 53 -90 46 -5 -3 -11 -1 -14 4 -5 8 -42 3
-126 -15 -14 -3 -36 -7 -50 -9 -14 -1 -45 -8 -70 -13 -86 -20 -140 -25 -140
-11 0 7 -3 10 -6 6 -8 -7 -104 42 -104 54 0 5 -9 9 -19 9 -11 0 -21 4 -23 8
-4 11 -94 72 -106 72 -6 0 -13 7 -16 16 -3 8 -10 13 -15 10 -5 -4 -11 -1 -13
4 -5 17 -100 19 -136 4z m-110 -972 c25 -10 55 -48 50 -64 -1 -5 2 -8 7 -8 6
0 9 -63 8 -150 -1 -94 2 -150 8 -151 7 0 7 -2 0 -5 -5 -2 -9 -27 -8 -56 2 -82
-18 -118 -79 -142 -47 -18 -413 -16 -448 3 -32 18 -61 51 -54 62 3 5 0 9 -5 9
-15 0 -15 399 0 437 13 35 43 63 77 72 42 11 414 6 444 -7z m811 4 c15 -5 27
-12 27 -18 0 -5 4 -7 9 -4 9 6 24 -18 26 -39 0 -5 4 -16 8 -22 5 -7 4 -13 -2
-13 -10 0 -10 -18 1 -35 4 -6 3 -17 -2 -25 -5 -8 -5 -21 1 -31 6 -11 5 -20 0
-24 -10 -5 -7 -37 4 -55 3 -6 3 -10 -2 -10 -9 0 -8 -94 2 -109 3 -6 2 -11 -4
-11 -6 0 -6 -11 -1 -30 5 -17 5 -30 0 -30 -5 0 -7 -7 -3 -16 3 -8 -1 -27 -8
-42 -37 -73 -60 -79 -284 -76 -104 1 -199 2 -210 3 -11 0 -36 15 -55 32 -34
31 -34 33 -35 115 0 46 -4 84 -8 84 -5 0 -5 5 -1 12 4 7 8 24 8 38 0 14 -4 31
-8 38 -4 7 -2 12 5 12 9 0 9 3 0 14 -7 9 -8 15 -2 18 6 2 7 17 2 41 -5 20 -6
39 -2 41 4 3 6 17 5 33 -2 41 26 83 68 103 32 14 69 16 235 15 109 -1 210 -5
226 -9z m-813 -816 c29 -15 55 -40 43 -40 -4 0 -1 -5 7 -10 13 -8 15 -46 16
-235 1 -124 -2 -225 -7 -225 -5 0 -9 -6 -9 -14 0 -8 -15 -25 -32 -38 -32 -22
-41 -23 -240 -24 -115 -1 -208 2 -208 7 0 5 -6 6 -14 3 -8 -3 -24 3 -36 13
-46 38 -49 58 -49 279 0 303 -4 299 306 298 144 -1 205 -4 223 -14z m404 8
c-6 -10 -4 -10 7 -3 13 10 341 12 379 3 49 -12 84 -59 86 -116 1 -26 3 -51 4
-57 1 -5 1 -14 0 -20 -4 -23 -2 -94 4 -103 3 -6 2 -13 -3 -16 -5 -4 -6 -18 -2
-34 5 -15 5 -36 1 -47 -4 -11 -3 -23 4 -27 8 -5 8 -10 -1 -19 -6 -6 -9 -17 -6
-25 8 -21 -15 -79 -40 -101 -35 -30 -52 -39 -42 -22 7 11 6 12 -6 3 -20 -16
-403 -16 -434 0 -41 21 -71 68 -71 108 1 21 -3 38 -9 38 -7 0 -7 3 0 8 12 8
14 82 2 82 -5 0 -5 5 -1 12 10 16 12 78 3 78 -4 0 -3 16 1 35 5 22 4 35 -2 35
-7 0 -7 4 -1 13 5 6 8 26 6 42 -6 58 22 102 82 130 38 18 48 18 39 3z m-26
-804 c26 -16 50 -40 62 -64 11 -22 18 -40 15 -40 -4 0 -3 -6 1 -12 11 -17 12
-48 3 -54 -5 -2 -5 -12 -2 -20 3 -9 1 -19 -5 -23 -6 -3 -69 -5 -141 -4 -119 2
-130 1 -124 -15 14 -37 69 -66 96 -50 12 6 17 5 17 -4 0 -9 3 -10 8 -2 4 6 18
17 31 24 20 10 27 9 50 -8 37 -27 36 -44 -1 -65 -18 -11 -35 -18 -37 -17 -2 1
-7 -4 -11 -10 -4 -7 -31 -12 -61 -12 -120 0 -199 73 -204 192 -2 40 3 70 16
100 20 44 67 93 81 84 4 -3 8 -1 8 5 0 13 77 28 120 23 19 -2 54 -15 78 -28z
m-1205 -24 c-3 -11 -9 -23 -14 -25 -4 -3 -6 -12 -2 -20 3 -8 0 -15 -6 -15 -6
0 -8 -7 -5 -15 4 -8 1 -22 -6 -30 -6 -8 -9 -19 -6 -24 4 -5 1 -13 -5 -16 -5
-4 -8 -13 -5 -20 3 -8 0 -15 -5 -17 -6 -2 -12 -19 -15 -38 -3 -19 -10 -40 -15
-46 -11 -13 16 -36 95 -82 34 -19 63 -39 64 -44 2 -4 8 -8 14 -8 5 0 23 -9 39
-21 16 -11 29 -17 29 -12 0 4 5 0 11 -10 6 -9 13 -16 17 -13 4 2 12 -2 19 -9
9 -10 3 -16 -30 -30 -23 -9 -49 -21 -57 -25 -16 -8 -69 14 -82 34 -4 6 -8 7
-8 3 0 -5 -12 1 -26 12 -15 12 -32 21 -40 21 -7 0 -14 4 -16 9 -1 5 -10 11
-18 13 -8 2 -23 11 -34 20 -18 16 -20 16 -31 1 -10 -13 -8 -27 11 -72 14 -31
29 -64 34 -73 22 -38 7 -65 -40 -73 -3 0 -15 -6 -26 -13 -22 -12 -27 -7 -39
47 -2 8 -7 17 -12 20 -4 3 -10 13 -12 21 -12 45 -27 80 -33 80 -5 0 -8 11 -8
25 0 14 -4 25 -8 25 -5 0 -14 19 -21 42 -7 23 -20 52 -28 65 -8 13 -13 23 -9
23 3 0 -3 15 -14 33 -11 17 -20 40 -20 50 0 9 -4 17 -9 17 -5 0 -11 11 -13 24
-4 20 0 26 21 31 14 4 33 13 43 21 14 14 18 13 37 -7 12 -13 21 -31 21 -41 0
-10 5 -18 10 -18 6 0 10 -9 10 -19 0 -11 5 -23 10 -26 6 -3 10 -14 10 -24 0
-10 7 -24 16 -31 8 -8 14 -9 13 -4 -1 5 0 11 1 14 1 3 3 14 5 25 6 33 29 95
36 95 3 0 5 11 4 25 -2 14 1 25 6 25 5 0 8 3 7 8 -8 37 47 92 92 92 10 0 22 5
25 10 11 18 23 11 18 -10z m1630 -2 c-2 -5 1 -8 7 -8 7 0 9 -7 6 -16 -5 -13
-2 -15 16 -9 40 14 122 11 138 -5 3 -3 14 -10 25 -16 26 -14 56 -73 51 -101
-2 -13 1 -20 7 -16 6 3 7 -13 3 -45 -6 -54 -22 -98 -43 -120 -7 -7 -18 -21
-25 -30 -22 -29 -59 -44 -119 -47 -41 -3 -61 0 -69 10 -7 8 -16 12 -21 9 -5
-3 -9 1 -10 8 0 16 -21 -30 -24 -54 -2 -10 -3 -19 -5 -20 -1 -2 -4 -16 -6 -33
-7 -40 -20 -46 -65 -30 -20 8 -40 11 -43 8 -3 -4 -6 -2 -6 4 0 5 3 13 7 16 3
4 7 22 9 39 2 31 11 73 14 73 1 0 3 9 5 20 5 26 18 88 20 95 4 13 16 76 16 85
1 6 4 15 9 20 4 6 7 22 6 38 -1 15 2 27 7 27 5 0 7 9 4 20 -3 11 -2 20 2 20 4
0 8 12 9 26 3 38 9 43 46 41 19 -1 32 -5 29 -9z m-1043 -17 c36 -19 70 -52 70
-68 0 -8 5 -11 10 -8 6 3 10 -3 10 -14 0 -11 4 -22 8 -25 4 -2 7 -17 6 -33 -1
-15 -3 -33 -3 -40 -1 -6 -9 -12 -18 -11 -10 0 -28 -3 -40 -6 -35 -9 -65 -16
-98 -21 -16 -3 -43 -8 -60 -12 -16 -4 -33 -6 -37 -5 -14 3 -9 -16 8 -32 8 -9
24 -17 35 -17 10 -1 25 -2 32 -3 18 -3 75 21 94 39 14 14 17 14 32 0 10 -8 23
-15 29 -15 41 0 -32 -85 -91 -107 -40 -14 -124 -16 -132 -3 -4 6 -10 8 -15 5
-12 -7 -90 63 -90 81 0 8 -4 14 -9 14 -5 0 -11 12 -14 28 -3 15 -9 38 -13 51
-6 19 -4 22 7 16 11 -7 11 -5 -1 10 -11 13 -12 19 -3 22 7 2 9 11 6 19 -3 8 0
21 7 29 7 8 9 15 4 15 -5 0 12 20 38 45 27 25 55 45 63 45 8 0 15 4 15 8 0 13
123 7 150 -7z m1610 -141 c0 -4 9 -10 20 -13 13 -3 18 -11 14 -20 -3 -8 -1
-18 5 -22 6 -3 11 -1 11 4 0 15 67 5 95 -13 12 -8 30 -22 39 -32 16 -15 15
-18 -15 -43 -37 -31 -48 -32 -71 -8 -31 30 -104 15 -109 -24 -1 -5 -2 -12 -3
-16 -3 -11 -45 -104 -56 -125 -6 -10 -10 -25 -10 -33 0 -8 -4 -15 -10 -15 -5
0 -9 -3 -7 -7 6 -21 -32 -16 -72 8 -24 14 -31 23 -22 28 7 5 12 11 11 15 -1 4
6 26 16 49 10 23 17 45 16 50 -1 4 3 7 8 7 6 0 10 8 10 19 0 10 7 24 15 31 8
7 13 16 10 20 -3 4 11 42 29 83 30 64 38 75 55 70 12 -3 21 -9 21 -13z"/>
<path d="M2549 2049 c-17 -16 -28 -33 -25 -38 7 -11 66 -20 66 -10 0 5 6 6 13
3 7 -2 29 -6 50 -7 58 -5 55 25 -7 73 -16 12 -18 12 -11 1 6 -10 4 -12 -6 -6
-26 17 -50 12 -80 -16z"/>
<path d="M3182 1999 c-12 -5 -24 -14 -26 -21 -1 -7 -8 -28 -14 -46 -8 -24 -7
-30 1 -25 9 5 9 3 0 -8 -6 -8 -12 -17 -12 -21 -1 -5 -1 -9 -2 -10 -11 -36 -7
-58 13 -69 74 -40 143 13 146 112 2 59 -56 106 -106 88z"/>
<path d="M1968 2003 c-32 -16 -52 -48 -44 -68 4 -12 11 -12 43 -2 21 7 45 13
53 12 8 -1 20 1 25 4 6 3 16 6 23 7 24 4 26 14 6 34 -24 25 -71 30 -106 13z"/>
</g>
</svg>
